<svg xmlns="http://www.w3.org/2000/svg" viewBox="0 0 291.48 68.2">
<g id="mark">
   <g id="shield">
        <path d="M9,8.91,5.66,8.25l2.22,2.54L5.66,13.33,9,12.67l1.09,3.19,1.09-3.19,3.31.66-2.23-2.54,2.23-2.54-3.31.66-1.09-3.2L9,8.91m1.09-.76.56,1.66,1.72-.34-1.15,1.32,1.15,1.32-1.72-.34-.56,1.65c-.23-.65-.57-1.65-.57-1.65l-1.71.34,1.15-1.32L7.78,9.47l1.71.34.57-1.66" fill="#ae9142"/>
        <path d="M17.1,32.11c.19-.43.31-.71.43-.92a.34.34,0,0,1,.26-.17l.1,0s0-.1,0-.12H17A.09.09,0,0,0,17,31l.12,0c.12,0,.14.07.07.24-.22.58-.47,1.17-.7,1.7l-.23-.54-.3-.76a2.92,2.92,0,0,1-.2-.56s0-.05.12-.08L16,31a.08.08,0,0,0,0-.12H14.94s0,.08,0,.11l.1,0c.17,0,.21.1.32.38l.74,1.79c.07.17.14.38.19.55l.08,0,.07,0c.07-.21.27-.71.44-1.1Z" fill="#ae9142"/>
        <path d="M19,33.08c0,.45,0,.46.23.48l.09,0a.09.09,0,0,1,0,.12H18.18a.09.09,0,0,1,0-.12l.09,0c.2,0,.23,0,.23-.48V31.5c0-.45,0-.47-.23-.49h-.09s0-.11,0-.12h1.11s0,.09,0,.12H19.2c-.19,0-.23,0-.23.49Z" fill="#ae9142"/>
        <path d="M20.69,31.24c0-.17,0-.18-.11-.18h-.23c-.38,0-.49,0-.65.39a.11.11,0,0,1-.13,0c.07-.23.13-.49.16-.65h.09c0,.11.08.12.36.12h1.68c.2,0,.26,0,.31-.12h0a.08.08,0,0,1,.06,0,2.81,2.81,0,0,0-.07.68.09.09,0,0,1-.12,0c-.06-.33-.13-.41-.57-.41h-.24c-.11,0-.11,0-.11.18v1.84c0,.45,0,.46.23.48l.15,0a.09.09,0,0,1,0,.12H20.3a.08.08,0,0,1,0-.12l.17,0c.19,0,.23,0,.23-.48Z" fill="#ae9142"/>
        <path d="M23.48,32.71c.13,0,.16,0,.2.12l.18.51c.05.18,0,.21-.11.22l-.1,0a.09.09,0,0,0,0,.12h1.06a.09.09,0,0,0,0-.12l-.06,0c-.22,0-.24-.07-.34-.35l-.61-1.78c-.07-.19-.12-.38-.19-.58a.08.08,0,0,0-.07,0,.77.77,0,0,1-.3.2.66.66,0,0,1-.08.31l-.58,1.51c-.09.23-.16.41-.21.52s-.1.18-.23.2l-.13,0a.09.09,0,0,0,0,.12h.87s0-.09,0-.12l-.13,0c-.16,0-.17,0-.09-.29l.15-.44c0-.12.06-.12.17-.12ZM23,32.52c-.1,0-.14,0-.07-.18l.18-.5.12-.34h0a1.83,1.83,0,0,1,.12.34l.18.51c0,.14,0,.17-.1.17Z" fill="#ae9142"/>
        <path d="M16.52,36.16c0-.21,0-.3,0-.32a.69.69,0,0,1,.31-.06c.64,0,1.09.41,1.09,1.25s-.31,1.25-1,1.25c-.41,0-.44-.22-.44-.63Zm-.45,1.65c0,.45,0,.47-.21.49h-.09s0,.11,0,.12h.73l.32,0a1.85,1.85,0,0,0,1-.21A1.35,1.35,0,0,0,18.47,37a1.29,1.29,0,0,0-.79-1.27,2.15,2.15,0,0,0-.91-.15,9.09,9.09,0,0,0-1,0,.11.11,0,0,0,0,.12h.08c.19,0,.19.08.19.49Z" fill="#ae9142"/>
        <path d="M19,36.23c0-.44,0-.46-.23-.49h-.07a.08.08,0,0,1,0-.12h1.08a.09.09,0,0,1,0,.12h-.1c-.19,0-.22,0-.22.49v1c0,.57.17,1.07.74,1.07s.76-.42.76-1.06v-.54a2.32,2.32,0,0,0-.08-.83.28.28,0,0,0-.2-.11h-.08s0-.11,0-.12h.89a.08.08,0,0,1,0,.12l-.09,0c-.07,0-.15,0-.18.1a3.62,3.62,0,0,0-.05.83v.51a1.4,1.4,0,0,1-.28,1,1,1,0,0,1-.8.32,1.13,1.13,0,0,1-.85-.27,1.21,1.21,0,0,1-.27-.91Z" fill="#ae9142" />
        <path d="M22.73,36.23c0-.44,0-.45.23-.48h.09s0-.11,0-.13H21.92s0,.1,0,.13H22c.2,0,.23,0,.23.48v1.58c0,.44,0,.46-.23.48l-.12,0s0,.11,0,.12h2a3.5,3.5,0,0,0,.17-.61.08.08,0,0,0-.12,0c-.19.43-.26.45-.72.45s-.39,0-.44-.09a.77.77,0,0,1-.07-.44Z" fill="#ae9142"/>
        <path d="M41.74,27.47V25.24a15.61,15.61,0,0,1-7.91.58c-4.75-.68-6.72.62-6.72.62s-2-1.3-6.73-.62a15.61,15.61,0,0,1-7.91-.58v2.23H11.14V44.38h13.8a2.77,2.77,0,0,0,2.17.85,2.76,2.76,0,0,0,2.16-.85h13.8V27.47ZM26.53,42.68s-1.68-1.14-6.43-.53-6.46-.49-6.46-.49V26.81s2,.79,6.76.18,6.13.53,6.13.53Zm14.06-1s-1.72,1.09-6.47.48-6.42.53-6.42.53V27.53s1.38-1.14,6.13-.53,6.76-.19,6.76-.19Z" fill="#ae9142"/>
        <path d="M31,31.63a.07.07,0,0,1-.11,0,.7.7,0,0,0-.71-.59c-.47,0-.93.37-.93,1.19s.48,1.28.95,1.28a.82.82,0,0,0,.77-.6.07.07,0,0,1,.11,0,1.78,1.78,0,0,1-.18.61l-.13,0a1.89,1.89,0,0,1-.57.1,1.54,1.54,0,0,1-.93-.27,1.29,1.29,0,0,1-.52-1.11,1.38,1.38,0,0,1,.46-1.07,1.62,1.62,0,0,1,1-.34,2.45,2.45,0,0,1,.63.09l.1,0c0,.1,0,.33.05.63" fill="#ae9142"/>
        <path d="M31.72,31.5c0-.45,0-.47-.23-.5h-.07s0-.11,0-.12h1.81c0,.06,0,.4.07.58a.09.09,0,0,1-.13,0c-.07-.25-.13-.35-.26-.39a1.76,1.76,0,0,0-.33,0h-.22c-.17,0-.17,0-.17.25v.77c0,.11,0,.11.09.11h.14c.36,0,.43,0,.46-.19l0-.15s.11,0,.13,0,0,.26,0,.43,0,.31,0,.44-.1,0-.13,0l0-.17c0-.18-.1-.19-.46-.19h-.14c-.09,0-.09,0-.09.11V33c0,.22,0,.37.07.44s.06.1.4.1c.53,0,.56-.12.7-.46a.09.09,0,0,1,.13,0,2.9,2.9,0,0,1-.17.62h-2a.08.08,0,0,1,0-.12l.15,0c.2,0,.23,0,.23-.49Z" fill="#ae9142"/>
        <path d="M34.58,31.42c0-.2,0-.29,0-.32s0-.05.17-.05c.66,0,1.11.4,1.11,1.24s-.32,1.25-1,1.25c-.42,0-.31-.22-.31-.63Zm-.45,1.65c0,.46,0,.47-.22.49l-.09,0s0,.1,0,.12h1a1.74,1.74,0,0,0,.9-.2,1.37,1.37,0,0,0,.71-1.22,1.29,1.29,0,0,0-.8-1.27,2.1,2.1,0,0,0-.86-.14c-.39,0-.63,0-.91,0a.09.09,0,0,0,0,.12h.08c.19,0,.19.07.19.48Z" fill="#ae9142"/>
        <path d="M38.13,31c.62,0,.87.74.87,1.38,0,.85-.35,1.21-.79,1.21-.65,0-.88-.79-.88-1.38,0-.9.42-1.21.8-1.21m0-.17a1.39,1.39,0,0,0-1.37,1.5,1.35,1.35,0,0,0,1.37,1.43,1.37,1.37,0,0,0,1.35-1.46,1.35,1.35,0,0,0-1.35-1.47" fill="#ae9142"/>
        <path d="M29.79,38.31a1.41,1.41,0,0,1-.12-.65.08.08,0,0,1,.12,0c.08.22.31.67.71.67a.44.44,0,0,0,.49-.45.68.68,0,0,0-.42-.62l-.18-.1a1,1,0,0,1-.58-.82c0-.42.31-.77.91-.77a2.52,2.52,0,0,1,.56.08,2.06,2.06,0,0,1,.09.57.09.09,0,0,1-.13,0,.6.6,0,0,0-.56-.51.43.43,0,0,0-.47.45.62.62,0,0,0,.4.51l.25.15a.94.94,0,0,1,.57.83.84.84,0,0,1-1,.83,1.26,1.26,0,0,1-.68-.18" fill="#ae9142"/>
        <path d="M32.22,36.26c0-.39,0-.45-.18-.47l-.15,0s0-.1,0-.12a6.2,6.2,0,0,1,.91,0,1.74,1.74,0,0,1,.86.17.74.74,0,0,1,.35.64.86.86,0,0,1-.92.82H33a.08.08,0,0,1,0-.1.64.64,0,0,0,.51-.7.59.59,0,0,0-.59-.65c-.2,0-.2,0-.2.18v1.85c0,.45,0,.47.22.49h.15s0,.11,0,.12H31.92s0-.09,0-.12H32c.19,0,.23,0,.23-.49Z" fill="#ae9142"/>
        <path d="M34.65,37.81c0,.45,0,.47-.23.49h-.16s0,.11,0,.12h2a2.32,2.32,0,0,0,.18-.61.11.11,0,0,0-.14,0c-.14.34-.18.46-.7.45-.35,0-.42,0-.47-.09a.77.77,0,0,1-.07-.44v-.47c0-.11,0-.12.1-.12h.2c.36,0,.43,0,.46.19l0,.17s.12,0,.14,0,0-.28,0-.45,0-.3,0-.41-.1,0-.14,0l0,.14c0,.19-.1.19-.46.19h-.2c-.09,0-.1,0-.1-.11V36c0-.24,0-.25.18-.25h.28a1.08,1.08,0,0,1,.32,0c.14,0,.2.14.26.38,0,0,.12,0,.13,0,0-.18,0-.52-.06-.59H34.36s0,.09,0,.13h.07c.19,0,.23,0,.23.49Z" fill="#ae9142"/>
        <path d="M37,38.31a1.29,1.29,0,0,1-.12-.65s.09,0,.13,0c.08.22.29.67.7.67a.43.43,0,0,0,.48-.45.69.69,0,0,0-.41-.62l-.18-.1a1,1,0,0,1-.58-.82c0-.42.3-.77.9-.77a2.53,2.53,0,0,1,.57.08,2.1,2.1,0,0,1,.08.57s-.09,0-.13,0a.59.59,0,0,0-.55-.51.43.43,0,0,0-.47.45.62.62,0,0,0,.39.51l.26.15a.93.93,0,0,1,.56.83.84.84,0,0,1-.95.83,1.26,1.26,0,0,1-.68-.18" fill="#ae9142"/>
        <path d="M27.1.63H0V25.27C0,48.76,14.93,61.34,27.1,68.2c12.18-6.86,27.11-19.44,27.11-42.93V.63Zm0,63.25c-1.34-.76-2.63-1.57-4-2.52a8,8,0,0,1,4-1.21,8,8,0,0,1,4,1.21c-1.38,1-2.69,1.76-4,2.52m9.41-6.77a3.22,3.22,0,0,1-1.67.94,7.72,7.72,0,0,1-1,.09c-2.75,0-3.37-1.65-6.73-1.65s-4,1.65-6.74,1.65a7.61,7.61,0,0,1-1-.09,3.22,3.22,0,0,1-1.67-.94,37.14,37.14,0,0,1-3.78-3.84c2.53,0,3.16,1.54,6.44,1.54,2.76,0,3.37-1.66,6.74-1.66s4,1.66,6.73,1.66c3.29,0,3.9-1.53,6.44-1.54a36.08,36.08,0,0,1-3.77,3.84m14-31.46a40.79,40.79,0,0,1-7.46,24.08h0a6.75,6.75,0,0,0-2.18-.32c-2.82,0-3.66,1.65-7,1.65-2,0-2.91-.9-4.58-1.37v-4s-.5.7-2.16.7S25,45.63,25,45.63v4c-1.67.47-2.54,1.38-4.58,1.38-3.36,0-4.2-1.66-7-1.66a6.78,6.78,0,0,0-2.19.32h0A40.66,40.66,0,0,1,3.7,25.65V4.33H50.51Z" fill="#ae9142"/>
        <path d="M29.26,20.9h9.33l3.15,1.82V15.29l-3.15,1.82H29.27V9.9L31.1,6.74h-8L25,9.9v7.21H15.62l-3.15-1.82v7.43l3.15-1.82H25v3.79a6.69,6.69,0,0,1,2.16.65,6.63,6.63,0,0,1,2.16-.65V20.9Z" fill="#ae9142"/>
         <path d="M23.55,37.05v0h.13v0c0-.11.09-.25.26-.25a.72.72,0,0,1,.29.1l0,0c.34.15.38.17.49.17s.4-.14.44-.47v0h-.12v0c0,.18-.12.27-.26.27s-.1,0-.39-.15a1.19,1.19,0,0,0-.45-.15s-.35,0-.42.46" fill="#ae9142"/>
	</g>
	<g id="text">
	    <path d="M83.86,38.73c0,1,0,5.1.09,5.87a1.24,1.24,0,0,1-1.13.47c-.53-.7-1.5-1.83-3.9-4.57l-7.81-8.91c-2.17-2.43-3.24-3.7-3.8-4.2-.1,0-.1.37-.1,2.14V36c0,2.5,0,5.57.6,6.58a2.23,2.23,0,0,0,1.7.83l.73.09c.3.24.27.88-.06,1-1.24-.07-2.54-.1-3.81-.1s-2.3,0-3.46.1a.69.69,0,0,1-.07-1l.73-.15c.64-.11,1.23-.24,1.48-.77.42-1,.42-4,.42-6.58V28.12c0-2.6,0-3.13-1.1-4.1a5.94,5.94,0,0,0-1.76-.67l-.51-.1c-.23-.19-.2-.86.14-1,1.26.13,3.1.1,3.94.1.69,0,1.49,0,2.29-.1.58,1.44,4.21,5.63,5.37,6.9l3.34,3.6c1.41,1.55,4.5,5.07,4.84,5.28.1-.1.1-.27.1-.81v-6.5c0-2.5,0-5.57-.64-6.57a2.13,2.13,0,0,0-1.66-.84l-.77-.1c-.3-.22-.27-.86.07-1,1.29.06,2.53.1,3.83.1s2.3,0,3.51-.1a.67.67,0,0,1,.06,1l-.77.18c-.63.09-1.19.23-1.43.76-.46,1-.46,3.93-.46,6.57Z" fill="#ffffff"/>
	    <path d="M100.35,23.19c5.31,0,7.58,5.84,7.58,10.87,0,6.71-3.07,9.55-6.87,9.55-5.71,0-7.68-6.28-7.68-10.88,0-7.1,3.64-9.54,7-9.54m.44-1.33A11.48,11.48,0,0,0,88.85,33.69c0,6,4.33,11.24,11.88,11.24,6.72,0,11.73-4.89,11.73-11.47,0-6.07-4-11.6-11.67-11.6" fill="#ffffff"/>
	    <path d="M122.78,25.19c0-1.4,0-1.46-.89-1.46h-1c-3.06,0-4,.37-5.2,3.06a.84.84,0,0,1-1.07-.23,51.41,51.41,0,0,0,1.3-5,.46.46,0,0,1,.37-.12.4.4,0,0,1,.33.12c.18.84.64.88,2.91.88h11.83c1.63,0,2.13-.1,2.54-.88a1,1,0,0,1,.39-.12.54.54,0,0,1,.44.16,23.15,23.15,0,0,0-.5,5.31.8.8,0,0,1-1,.1c-.43-2.61-1.06-3.23-4.63-3.23h-1c-.88,0-.91.06-.91,1.46V39.61c0,3.53.31,3.63,1.88,3.8l1.19.12a.72.72,0,0,1-.06,1c-1.94-.07-3.44-.1-4.91-.1s-3,0-5.17.1a.74.74,0,0,1-.06-1l1.4-.15c1.56-.14,1.86-.24,1.86-3.77Z" fill="#ffffff"/>
	    <path d="M144.61,25.26c0-1.53,0-1.64,1.77-1.64,2.9,0,4.61,2.3,4.61,4.94,0,3.17-1.51,4.77-4.78,4.77-1.6,0-1.6-.06-1.6-1.13Zm-3.87,14.35c0,3.53-.29,3.63-1.86,3.83l-.74.09a.67.67,0,0,0,.07,1c1.53-.07,3-.1,4.5-.1s3,0,4.43.1a.71.71,0,0,0,.07-1l-.73-.09c-1.57-.2-1.87-.3-1.87-3.83V35.34c0-.71,0-.74,1-.74a1.86,1.86,0,0,1,2.07,1.13c.8,1.3,1.74,3.15,2.64,4.54,2,3.11,3.77,4.41,7,4.41a8.78,8.78,0,0,0,2.2-.21.59.59,0,0,0-.07-.66,4.39,4.39,0,0,1-2.3-1c-1.56-1.31-3.24-4.13-5.9-8.64-.13-.2-.19-.47,0-.57,1.64-.67,4-2.2,4-5.27a5.23,5.23,0,0,0-2.94-4.86A13.86,13.86,0,0,0,146,22.29c-2.73,0-5.57.1-7.67.3a.68.68,0,0,0,0,.93l.86.1c1.57.17,1.6.57,1.6,3.77Z" fill="#ffffff"/>
	    <path d="M165.18,27.2c0-3.54-.3-3.65-1.87-3.87l-.53-.08c-.22-.22-.2-.83.07-1,.63,0,1.33.06,2.07.06s1.5,0,2.23,0h6.37c2.14,0,4.08,0,4.51-.1.13.57.33,3.2.53,4.63-.14.28-.8.34-1.07.14-.53-1.94-1-2.77-2.1-3a9.9,9.9,0,0,0-2.67-.29h-2.23c-1.44,0-1.44.06-1.44,2v5.64c0,.87,0,.9.81.9h1.59c2.91,0,3.48,0,3.71-1.47l.23-1.13c.27-.24.9-.24,1.07,0,0,.9-.09,2.1-.09,3.34s.06,2.44.09,3.5a.93.93,0,0,1-1.07,0l-.23-1.33c-.23-1.4-.8-1.47-3.71-1.47h-1.59c-.78,0-.81.07-.81.9v4.24c0,1.7.06,2.9.57,3.47s1,.73,3.77.73c4.23.07,5-.9,6.13-3.6a.8.8,0,0,1,1.07.19,20.84,20.84,0,0,1-1.4,4.85c-.73,0-1.8-.07-3.2-.07s-3.07,0-5,0h-3.8c-1.46,0-3.5,0-5,.1a.72.72,0,0,1-.06-1l1.22-.12c1.57-.17,1.87-.27,1.87-3.8Z" fill="#ffffff"/>
	    <path d="M198.91,26.56c0-1.57,0-2.27.27-2.46a5.63,5.63,0,0,1,2.69-.48c5.58,0,9.42,3.21,9.42,9.81,0,5.64-2.67,9.84-8.6,9.84-3.55,0-3.78-1.73-3.78-5ZM195,39.61c0,3.53-.29,3.63-1.87,3.83l-.73.09c-.23.24-.2.84.07,1,1.46-.07,3-.1,4.23-.1.63,0,1.34,0,2.14.1s1.7.09,2.7.09a18.25,18.25,0,0,0,8.28-1.6,10.57,10.57,0,0,0,6-9.6,10.2,10.2,0,0,0-6.85-10,21.63,21.63,0,0,0-7.86-1.14c-3.27,0-6,.1-8.34.3a.67.67,0,0,0,0,.93l.7.07c1.57.2,1.6.6,1.6,3.8Z" fill="#ffffff"/>
	    <path d="M224.59,34.73c-.8,0-.9,0-.54-1l1.4-3.91c.61-1.57.87-2.4,1-2.63h.06a13.66,13.66,0,0,1,.94,2.63l1.41,4c.27.79.13.86-.8.86Zm3.9,1.5c.94,0,1,0,1.37.9l1.56,4.54c.44,1.43.34,1.63-.85,1.77l-.75.09a.79.79,0,0,0,.11,1c1.16,0,2.63-.1,4.06-.1,1.74,0,3,0,4.34.1a.75.75,0,0,0,0-1l-.5-.09c-1.7-.3-1.87-.54-2.64-2.77l-4.81-14c-.53-1.5-1-3.07-1.49-4.57a.68.68,0,0,0-.57-.26,6,6,0,0,1-2.33,1.6,5.29,5.29,0,0,1-.64,2.44l-4.58,11.87c-.69,1.8-1.22,3.2-1.63,4.06-.5,1.11-.86,1.41-1.83,1.55l-1,.15a.76.76,0,0,0,0,1c1.16-.07,2.2-.1,3.29-.1,1.37,0,2.48,0,3.54.1a.72.72,0,0,0,.06-1l-1-.15c-1.24-.18-1.37-.28-.7-2.25l1.37-4c.29-.9.27-.9,1.13-.9Z" fill="#ffffff"/>
	    <path d="M268.92,43.53c.34.14.3.84-.06,1-1.44-.07-2.74-.1-4.08-.1-1.56,0-3,0-4.46.1-.27-.14-.41-.77-.07-1l.9-.15c1.34-.21,1.43-.47,1.43-2.75V27h-.07c-.9,1.84-1.36,2.84-2,4.17L257.65,37c-1.14,2.34-2.81,6-3.41,7.61a1,1,0,0,1-.87,0c-.56-1.8-2-5.07-2.76-6.74l-3-6.4C247,30.09,246.1,28,245.71,27h-.07c-.07,1.64-.13,4.24-.2,5.64-.07,2-.14,5-.14,7.74,0,2.21,0,2.73,1.47,3l1.1.19c.24.21.24.84,0,1-1.24-.07-2.27-.1-3.5-.1-1.07,0-2.27,0-3.57.1a.73.73,0,0,1-.11-1l.57-.06c1.6-.2,1.86-.7,2.07-2.74s.34-4.26.5-7.73c.14-2.27.33-5,.33-7.08,0-1.57-.49-2.26-1.79-2.46l-1.14-.21c-.2-.22-.17-.86.13-1,1,.06,1.9.1,3.14.1s2.33,0,3.57-.1a15.8,15.8,0,0,0,1.83,5.54l3.68,7.7c.26.56,1.13,2.24,1.56,3,.53-1,1-1.9,1.74-3.46L260,28.66a33.34,33.34,0,0,0,2.69-6.37c.91.06,2,.1,2.75.1,1.4,0,2.57,0,3.5-.1a.57.57,0,0,1,.1,1l-1.1.18c-1.46.19-1.8.76-1.8,2.53,0,4.94.06,9.88.3,14.81.11,2.23.47,2.47,1.53,2.61Z" fill="#ffffff"/>
	    <path d="M276.06,27.2c0-3.54-.3-3.65-1.87-3.87l-.53-.08c-.23-.22-.2-.83.06-1,.63,0,1.34.06,2.07.06s1.5,0,2.24,0h6.37c2.13,0,4.07,0,4.5-.1.14.57.34,3.2.54,4.63-.14.28-.8.34-1.08.14-.52-1.94-1-2.77-2.09-3a9.9,9.9,0,0,0-2.67-.29h-2.24c-1.43,0-1.43.06-1.43,2v5.64c0,.87,0,.9.8.9h1.6c2.91,0,3.47,0,3.71-1.47l.23-1.13a.83.83,0,0,1,1.06,0c0,.9-.1,2.1-.1,3.34s.06,2.44.1,3.5a.91.91,0,0,1-1.06,0L286,35.2c-.24-1.4-.8-1.47-3.71-1.47h-1.6c-.77,0-.8.07-.8.9v4.24c0,1.7.07,2.9.56,3.47s1,.73,3.78.73c4.23.07,5-.9,6.14-3.6a.8.8,0,0,1,1.07.19,21.84,21.84,0,0,1-1.41,4.85c-.74,0-1.8-.07-3.2-.07s-3.07,0-5,0H278c-1.47,0-3.51,0-5,.1a.74.74,0,0,1-.07-1l1.24-.12c1.57-.17,1.87-.27,1.87-3.8Z" fill="#ffffff"/>
	    <path d="M64.3,3.84c0-2.08-.15-2.14-1.42-2.42l-.43-.08c-.21-.16-.18-.67.07-.76,1,.05,2,.09,2.93.09s1.9,0,3.08-.09c.24.09.27.6,0,.76L68,1.42c-1.3.22-1.42.34-1.42,2.42V8.1c0,3,1,5.06,3.93,5.06,2.71,0,3.89-2.05,3.89-5V5.32c0-3-.17-3.72-1.48-3.9l-.63-.08a.51.51,0,0,1,.06-.76c1,.05,1.66.09,2.54.09s1.54,0,2.5-.09a.5.5,0,0,1,0,.76l-.9.08c-.79.09-1,.91-1,3.9v3c0,3.86-1.79,5.88-5.63,5.88a6.08,6.08,0,0,1-4.29-1.26c-.9-.9-1.29-2.29-1.29-4.26Z" fill="#ffffff"/>
	    <path d="M97.46,5.32c0-3-.18-3.78-1.3-3.9l-1-.08a.51.51,0,0,1,.06-.76c1.12.05,1.81.09,2.7.09s1.54,0,2.5-.09a.53.53,0,0,1,0,.76l-.9.08c-.79.09-1,.91-1,3.9v5.07c0,.6,0,3,.09,3.51a.58.58,0,0,1-.64.26c-.33-.42-.94-1.05-2.81-3.07L90.6,6.19c-1.15-1.2-1.93-2-2.32-2.32-.12,0-.12.33-.12,1.26v4c0,3,.18,3.81,1.29,3.9l1,.09a.49.49,0,0,1-.06.76c-1.12-.07-1.82-.1-2.68-.1s-1.46,0-2.52.1a.51.51,0,0,1,0-.76L86,13c.78-.09,1-.91,1-3.9V3.72c0-1,0-1.42-.64-1.87a3.3,3.3,0,0,0-1.12-.43l-.45-.08a.49.49,0,0,1,.06-.76c1.15.09,2,.09,2.6.09A9,9,0,0,0,88.73.58a18,18,0,0,0,3,3.71l2.85,2.93C95.19,7.88,97,9.8,97.28,10c.18-.06.18-.49.18-1.21Z" fill="#ffffff"/>
	    <path d="M110.44,3.84c0-2.08-.12-2.2-1.41-2.42l-.58-.08c-.21-.16-.18-.67.07-.76,1.17.05,2.11.09,3.07.09s1.91,0,3.08-.09c.24.09.28.6.06.76l-.57.08c-1.3.22-1.42.34-1.42,2.42V10.6c0,2.09.12,2.2,1.42,2.42l.57.09a.51.51,0,0,1-.06.76c-1.14-.07-2.15-.1-3.08-.1s-1.9,0-3.07.1a.51.51,0,0,1-.07-.76L109,13c1.29-.22,1.41-.33,1.41-2.42Z" fill="#ffffff"/>
	    <path d="M124.36,3.9c-.91-2-1-2.14-1.74-2.33l-1-.23a.53.53,0,0,1,0-.76c.78.05,1.78.09,2.71.09,1.1,0,2,0,2.94-.09a.47.47,0,0,1,0,.76l-.64.08c-.78.12-.78.52-.12,2L128,6.76c.76,1.73,1.27,2.85,1.72,3.84.61-1.27,1.12-2.53,1.69-3.8s1.49-3.48,1.79-4.36c.21-.63.17-.84-.73-1L132,1.34a.47.47,0,0,1,.06-.76c.88.05,1.66.09,2.47.09a21.29,21.29,0,0,0,2.15-.09.49.49,0,0,1,.15.76l-.85.17c-.9.19-1.08.46-2.05,2.51L131.65,9c-.91,1.93-1.79,4.13-2.15,5.13a.53.53,0,0,1-.37.11.6.6,0,0,1-.35-.11c-.28-.79-.61-1.76-1-2.6Z" fill="#ffffff"/>
	    <path d="M145.3,3.84c0-2.08-.12-2.18-1.27-2.42l-.42-.08c-.22-.13-.17-.64.06-.76.45,0,.91.05,1.36.05s1,0,1.45,0h4.29c1.33,0,2.53,0,2.81-.09,0,.36.18,1.78.33,3.08a.55.55,0,0,1-.79.06,4.46,4.46,0,0,0-.54-1.46c-.48-.72-1.84-.72-2.56-.72h-1.34c-1.06,0-1.09,0-1.09,1V5.86c0,.55,0,.61.57.61h1.43c1.6,0,1.74-.25,2-1.15l.16-.57a.49.49,0,0,1,.75,0c-.06.88-.06,1.42-.06,2.12s0,1.3.06,2.17a.51.51,0,0,1-.75.07l-.16-.58c-.25-.9-.39-1.14-2-1.14h-1.43c-.57,0-.57.09-.57.69V10.3a4.3,4.3,0,0,0,.34,2.17c.27.31.82.43,2.53.43,1.94,0,3.06-.1,3.93-2.51a.51.51,0,0,1,.78.12,11,11,0,0,1-.9,3.36c-.93,0-1.81-.07-2.65-.07s-1.67,0-2.48,0h-2.66c-1,0-1.9,0-3.36.1-.24-.1-.26-.61-.05-.76l.82-.09c1.29-.15,1.41-.33,1.41-2.42Z" fill="#ffffff"/>
	    <path d="M167,2.29c0-.78.22-.84,1.33-.84a2.85,2.85,0,0,1,3.18,2.84c0,2.08-1,2.88-3,2.88-1.48,0-1.52,0-1.52-.76Zm-2.29,8.31c0,2.09-.11,2.14-1.42,2.42l-.45.09a.44.44,0,0,0,.05.76c1.07-.07,2-.1,3-.1s1.94,0,3.21.1a.51.51,0,0,0,.06-.76l-.7-.09c-1.3-.19-1.42-.33-1.42-2.42V8.46c0-.43.07-.48.85-.48a1.41,1.41,0,0,1,1.21.48c.63,1,1.45,2.29,2.2,3.26,1.33,1.69,2.42,2.26,4.23,2.26a4,4,0,0,0,1.27-.15.34.34,0,0,0,0-.48,2.74,2.74,0,0,1-1.6-.63,18.19,18.19,0,0,1-3.84-4.84.35.35,0,0,1,0-.44A3.49,3.49,0,0,0,174,4.2C174,1,171,.58,168.16.58c-1.66,0-3.35.05-5,.18-.3.09-.25.72,0,.75l.85.13c.69.09.72.6.72,2.56Z" fill="#ffffff"/>
	    <path d="M186.68,7.61C185.23,6.85,184,5.68,184,4c0-2.2,1.7-3.75,4.75-3.75a14.84,14.84,0,0,1,2.81.46,7.45,7.45,0,0,1,.43,3,.55.55,0,0,1-.79.06,3,3,0,0,0-2.8-2.59c-1.79,0-2.46,1-2.46,2s.82,1.76,2,2.39l1.87,1a4.32,4.32,0,0,1,2.44,3.85c0,2.35-1.93,3.82-4.92,3.82a6.28,6.28,0,0,1-3.48-.93,6.57,6.57,0,0,1-.62-3.11.46.46,0,0,1,.78-.06c.23,1.09,1.56,3.24,3.6,3.24,1.54,0,2.53-.8,2.53-2.19,0-1-.39-2-2.11-2.83Z" fill="#ffffff"/>
	    <path d="M202.48,3.84c0-2.08-.13-2.2-1.43-2.42l-.56-.08c-.22-.16-.18-.67,0-.76,1.19.05,2.12.09,3.08.09s1.9,0,3.09-.09c.24.09.27.6,0,.76l-.57.08c-1.3.22-1.42.34-1.42,2.42V10.6c0,2.09.12,2.2,1.42,2.42l.57.09a.5.5,0,0,1,0,.76c-1.15-.07-2.15-.1-3.09-.1s-1.89,0-3.08.1a.51.51,0,0,1,0-.76l.56-.09c1.3-.22,1.43-.33,1.43-2.42Z" fill="#ffffff"/>
	    <path d="M219.81,2.33c0-.79,0-.79-.63-.79h-1c-1.83,0-2.62.19-3.35,2.26a.51.51,0,0,1-.75-.14c.33-1.3.67-2.81.82-3.57a.45.45,0,0,1,.54,0c0,.61.46.58,1.66.58h8.4c1.12,0,1.33,0,1.57-.58a.42.42,0,0,1,.55.09,12.71,12.71,0,0,0-.31,3.54.48.48,0,0,1-.75,0c-.21-2-1-2.21-2.81-2.21h-1c-.58,0-.67,0-.67.79V10.6c0,2.09.13,2.27,1.43,2.42l.81.09a.51.51,0,0,1-.06.76c-1.25-.07-2.38-.1-3.32-.1s-2.06,0-3.32.1a.5.5,0,0,1-.06-.76l.81-.09c1.3-.15,1.42-.33,1.42-2.42Z" fill="#ffffff"/>
	    <path d="M239.71,9.76a4.27,4.27,0,0,0-.84-2.58l-2.21-4.07c-.63-1.21-.93-1.47-1.72-1.63l-.78-.14a.51.51,0,0,1,.08-.76c1,.05,1.69.09,2.78.09.91,0,1.6,0,2.58-.09a.46.46,0,0,1,0,.76l-.42.08c-.67.15-.76.34-.27,1.27l1.12,2.14c.45.91.9,1.73,1.35,2.51.48-.82.94-1.54,1.45-2.51l1.21-2.2c.46-.84.51-1.12-.21-1.21l-.63-.08a.44.44,0,0,1,.06-.76c.91.05,1.6.09,2.29.09s1.3,0,2.14-.09a.49.49,0,0,1,.07.76l-.72.14c-.94.18-1.1.37-2,1.88l-1.87,3C242.07,8.1,242,8.4,242,9.28V10.9c0,1.79.12,2,1.42,2.12l.76.09a.52.52,0,0,1-.07.76c-1.32-.07-2.33-.1-3.26-.1s-1.91,0-3.26.1a.51.51,0,0,1-.07-.76l.77-.09c1.3-.15,1.41-.33,1.41-2.12Z" fill="#ffffff"/>
	    <path d="M265.57,1c3.32,0,4.86,3.26,4.86,6.49,0,4.13-2.21,5.71-4.5,5.71-3.51,0-4.92-3.35-4.92-6.47C261,2.5,263.39,1,265.57,1m.21-.88c-4.38,0-7.45,3.08-7.45,7.1,0,3.81,2.77,6.85,7.45,6.85,4.26,0,7.35-3,7.35-7,0-3.68-2.49-6.91-7.35-6.91" fill="#ffffff"/>
	    <path d="M280.76,3.83c0-2.08-.15-2.14-1.27-2.41l-.36-.09c-.21-.16-.18-.67.06-.76.41,0,.84.06,1.3.06s.94,0,1.42,0h4.19c1.34,0,2.48,0,2.91-.09,0,.36.05,1.78.15,3.09a.48.48,0,0,1-.8,0,4.33,4.33,0,0,0-.53-1.45c-.52-.75-1.85-.71-2.57-.71h-1.18c-.93,0-1,0-1,1v3.5c0,.56,0,.61.57.61h1.63c1.6,0,1.76-.25,2-1.14l.16-.58a.49.49,0,0,1,.74.06c0,.88,0,1.41,0,2.11s0,1.31,0,2.18a.49.49,0,0,1-.74.06l-.16-.57c-.23-.91-.39-1.15-2-1.15h-1.63c-.57,0-.57.09-.57.69V10.6c0,2.09.12,2.29,1.42,2.41l.93.1a.51.51,0,0,1-.06.76c-1.52-.07-2.51-.1-3.44-.1s-1.9,0-3.08.1a.51.51,0,0,1-.07-.76l.58-.1c1.29-.21,1.42-.32,1.42-2.41Z" fill="#ffffff"/>
	    <path d="M11.16,49.72h0s0,0,0,0" fill="#ffffff"/>
	</g>
</g>
</svg>