<svg width="211" height="50" viewBox="0 0 211 50" xmlns="http://www.w3.org/2000/svg" xmlns:sketch="http://www.bohemiancoding.com/sketch/ns"><g sketch:type="MSLayerGroup" fill="#fff"><path d="M60.478 28.746c0 .722 0 3.68.068 4.233-.187.272-.527.361-.814.339-.382-.509-1.084-1.322-2.813-3.293l-5.631-6.431c-1.566-1.753-2.337-2.666-2.744-3.026-.073 0-.073.266-.073 1.543v4.683c0 1.809.027 4.024.431 4.748.219.357.625.501 1.231.597l.526.069c.215.172.193.633-.048.703-.889-.045-1.827-.07-2.746-.07-1.004 0-1.654.025-2.498.07-.193-.122-.238-.531-.047-.703l.529-.112c.458-.079.888-.171 1.063-.554.308-.748.308-2.845.308-4.748v-5.7c0-1.875.025-2.261-.794-2.955-.266-.213-.936-.41-1.274-.487l-.363-.069c-.167-.141-.145-.624.102-.698.908.099 2.23.074 2.838.074.499 0 1.078-.026 1.654-.074.414 1.041 3.037 4.067 3.874 4.978l2.41 2.601c1.012 1.112 3.243 3.657 3.489 3.807.071-.074.071-.193.071-.584v-4.691c0-1.798-.024-4.016-.462-4.739-.215-.357-.599-.502-1.201-.605l-.552-.069c-.213-.164-.192-.624.05-.698.934.048 1.827.074 2.765.074 1.034 0 1.659-.026 2.527-.074.197.123.242.534.048.698l-.554.124c-.458.068-.864.171-1.037.55-.333.747-.333 2.837-.333 4.739v5.75" sketch:type="MSShapeGroup"/><path d="M72.69 16.577c-5.05 0-8.613 3.629-8.613 8.536 0 4.286 3.126 8.104 8.568 8.104 4.851 0 8.464-3.529 8.464-8.27 0-4.379-2.861-8.37-8.419-8.37zm-.315.959c3.831 0 5.466 4.214 5.466 7.844 0 4.835-2.214 6.882-4.958 6.882-4.114 0-5.537-4.524-5.537-7.842 0-5.127 2.627-6.884 5.029-6.884z" sketch:type="MSShapeGroup"/><path d="M88.552 18.98c0-1.012-.017-1.054-.646-1.054h-.713c-2.209 0-2.858.265-3.746 2.208-.174.145-.674.072-.772-.168.405-1.299.772-2.789.936-3.637.045-.069.148-.092.267-.092.096 0 .194.023.239.092.125.604.463.63 2.093.63h8.536c1.175 0 1.539-.074 1.828-.63.095-.044.191-.092.287-.092.144 0 .267.048.316.118-.246.985-.437 3.057-.365 3.827-.123.2-.527.247-.744.076-.311-1.882-.768-2.332-3.34-2.332h-.732c-.629 0-.655.042-.655 1.054v10.396c0 2.549.223 2.62 1.354 2.743l.863.089c.168.172.147.601-.047.703-1.398-.045-2.476-.07-3.537-.07-1.055 0-2.191.025-3.728.07-.194-.102-.221-.579-.049-.703l1.009-.112c1.128-.1 1.346-.171 1.346-2.72v-10.396" sketch:type="MSShapeGroup"/><path d="M101.505 29.376c0 2.549-.214 2.62-1.345 2.763l-.532.069c-.213.172-.144.601.047.703 1.108-.045 2.192-.07 3.25-.07 1.057 0 2.139.025 3.194.07.199-.102.226-.531.05-.703l-.525-.069c-1.131-.143-1.352-.214-1.352-2.763v-3.08c0-.505.028-.533.749-.533.791 0 1.06.097 1.492.82.576.938 1.256 2.266 1.9 3.276 1.471 2.237 2.723 3.175 5.029 3.175.838 0 1.299-.079 1.586-.147.069-.123.069-.386-.048-.481-.288-.026-.981-.17-1.661-.749-1.129-.94-2.336-2.981-4.254-6.231-.097-.145-.144-.335 0-.41 1.178-.481 2.887-1.588 2.887-3.799 0-1.728-.892-2.863-2.115-3.51-1.061-.579-2.693-.822-4.576-.822-1.971 0-4.016.074-5.532.222-.189.12-.189.498-.023.668l.625.07c1.131.123 1.154.412 1.154 2.723v8.808zm2.787-10.347c0-1.103.028-1.184 1.28-1.184 2.094 0 3.322 1.662 3.322 3.566 0 2.287-1.084 3.439-3.443 3.439-1.159 0-1.159-.046-1.159-.815v-5.006z" sketch:type="MSShapeGroup"/><path d="M119.13 20.429c0-2.551-.214-2.631-1.347-2.795l-.385-.051c-.162-.164-.145-.599.053-.698.453.02.961.048 1.488.048.529.026 1.084.026 1.611.026h4.598c1.541 0 2.939-.026 3.246-.074.094.413.24 2.312.383 3.344-.096.2-.574.243-.766.099-.386-1.398-.748-1.997-1.517-2.189-.553-.171-1.278-.213-1.924-.213h-1.613c-1.038 0-1.038.042-1.038 1.41v4.073c0 .626.026.65.584.65h1.147c2.101 0 2.508-.024 2.678-1.063l.166-.814c.195-.173.65-.173.769.023-.023.647-.066 1.513-.066 2.406 0 .907.043 1.758.066 2.527-.119.171-.574.171-.769.021l-.166-.963c-.17-1.006-.577-1.056-2.678-1.056h-1.147c-.558 0-.584.05-.584.651v3.058c0 1.223.047 2.085.414 2.498.288.337.696.529 2.717.529 3.053.049 3.584-.652 4.426-2.601.217-.166.629-.094.77.144-.141 1.008-.676 2.843-1.012 3.492-.529-.024-1.299-.045-2.307-.045-1.008-.025-2.215-.025-3.633-.025h-2.744c-1.054 0-2.523.025-3.609.07-.191-.102-.213-.531-.043-.703l.885-.089c1.133-.123 1.347-.194 1.347-2.743v-8.947" sketch:type="MSShapeGroup"/><path d="M140.664 29.376c0 2.549-.211 2.62-1.344 2.763l-.531.069c-.163.172-.143.601.05.703 1.055-.045 2.141-.07 3.055-.07.453 0 .963.025 1.537.07.578.022 1.231.068 1.953.068 2.188 0 4.256-.284 5.965-1.152 2.983-1.517 4.309-4.253 4.309-6.929 0-3.589-2.051-6.131-4.936-7.191-1.752-.631-3.394-.822-5.674-.822-2.359 0-4.287.074-6.015.222-.194.12-.194.545-.024.668l.5.051c1.135.142 1.155.431 1.155 2.742v8.808zm2.793-9.41c0-1.133.023-1.635.193-1.775.168-.15.943-.346 1.943-.346 4.024 0 6.789 2.315 6.789 7.074 0 4.072-1.922 7.098-6.205 7.098-2.554 0-2.72-1.246-2.72-3.583v-8.468z" sketch:type="MSShapeGroup"/><path d="M164.789 26.943c.675 0 .748 0 .988.65l1.127 3.274c.314 1.032.242 1.176-.619 1.272l-.535.069c-.139.151-.12.581.076.703.838-.024 1.898-.07 2.929-.07 1.252 0 2.147.025 3.133.07.166-.122.166-.531-.025-.703l-.36-.069c-1.226-.214-1.351-.384-1.902-1.996l-3.469-10.08c-.382-1.083-.689-2.218-1.076-3.296-.099-.121-.223-.19-.412-.19-.051 0-.84.981-1.682 1.152.073.41-.146.988-.461 1.76l-3.298 8.562c-.5 1.298-.887 2.307-1.176 2.933-.361.797-.623 1.012-1.322 1.112l-.723.112c-.164.218-.141.581.027.703.84-.045 1.588-.07 2.377-.07.989.025 1.785.025 2.549.07.199-.102.219-.531.049-.703l-.695-.112c-.893-.126-.987-.197-.502-1.62l.984-2.883c.213-.65.193-.65.816-.65h3.202zm-2.817-1.083c-.57 0-.644 0-.385-.693l1.008-2.817c.44-1.133.629-1.73.723-1.901h.047c.123.171.267.626.677 1.901l1.014 2.886c.192.576.096.624-.578.624h-2.506z" sketch:type="MSShapeGroup"/><path d="M193.951 32.208c.238.101.213.601-.047.703-1.039-.045-1.977-.07-2.94-.07-1.129 0-2.166.025-3.22.07-.194-.102-.291-.552-.053-.703l.652-.112c.963-.147 1.032-.341 1.032-1.978v-9.839h-.047c-.653 1.324-.985 2.045-1.444 3.007l-2.064 4.235c-.82 1.683-2.028 4.355-2.461 5.483-.094.097-.453.097-.623 0-.406-1.298-1.444-3.655-1.99-4.856l-2.147-4.619c-.455-1.013-1.105-2.531-1.391-3.25h-.054c-.047 1.179-.092 3.056-.139 4.064-.053 1.469-.103 3.613-.103 5.582 0 1.595.025 1.974 1.062 2.145l.791.138c.172.151.172.601-.019.703-.895-.045-1.639-.07-2.53-.07-.769 0-1.633.025-2.568.07-.227-.122-.227-.579-.078-.703l.408-.042c1.152-.149 1.344-.509 1.494-1.979.195-1.511.244-3.068.36-5.576.097-1.635.238-3.635.238-5.104 0-1.131-.354-1.629-1.295-1.778l-.82-.146c-.141-.164-.123-.624.097-.698.723.048 1.369.074 2.262.074.84 0 1.684 0 2.576-.074.094 1.446.719 2.693 1.317 3.997l2.652 5.557c.191.402.818 1.612 1.131 2.164.379-.698.722-1.376 1.254-2.502l2.257-4.621c.768-1.584 1.541-3.002 1.942-4.595.654.048 1.451.074 1.978.074 1.014 0 1.854-.026 2.53-.074.261.099.308.557.068.698l-.791.124c-1.055.138-1.301.55-1.301 1.83 0 3.56.045 7.121.217 10.678.076 1.612.336 1.781 1.106 1.881l.701.112" sketch:type="MSShapeGroup"/><path d="M199.095 20.429c0-2.551-.215-2.631-1.345-2.795l-.387-.051c-.166-.164-.145-.599.049-.698.453.02.961.048 1.492.048.529.026 1.082.026 1.613.026h4.594c1.539 0 2.939-.026 3.25-.074.094.413.238 2.312.385 3.344-.098.2-.577.243-.778.099-.375-1.398-.744-1.997-1.51-2.189-.556-.171-1.269-.213-1.923-.213h-1.612c-1.035 0-1.035.042-1.035 1.41v4.073c0 .626.024.65.578.65h1.153c2.097 0 2.502-.024 2.675-1.063l.164-.814c.192-.173.647-.173.766.023-.023.647-.072 1.513-.072 2.406 0 .907.049 1.758.072 2.527-.119.171-.574.171-.766.021l-.164-.963c-.173-1.006-.578-1.056-2.675-1.056h-1.153c-.554 0-.578.05-.578.651v3.058c0 1.223.051 2.085.406 2.498.291.337.698.529 2.721.529 3.055.049 3.584-.652 4.432-2.601.213-.166.625-.094.767.144-.142 1.008-.677 2.843-1.011 3.492-.532-.024-1.303-.045-2.313-.045-1.01-.025-2.211-.025-3.633-.025h-2.74c-1.059 0-2.529.025-3.613.07-.186-.102-.215-.531-.047-.703l.893-.089c1.13-.123 1.345-.194 1.345-2.743v-8.947" sketch:type="MSShapeGroup"/><path d="M46.372 3.581c0-1.499-.109-1.543-1.02-1.744l-.313-.062c-.148-.113-.127-.482.048-.544.739.038 1.419.062 2.119.062.69 0 1.367-.024 2.217-.062.175.062.195.431.039.544l-.409.062c-.938.156-1.028.245-1.028 1.744v3.071c0 2.174.723 3.655 2.833 3.655 1.959 0 2.81-1.481 2.81-3.633v-2.025c0-2.182-.127-2.681-1.066-2.812l-.461-.062c-.15-.133-.127-.438.049-.544.694.038 1.195.062 1.826.062s1.114-.024 1.807-.062c.177.106.177.431.021.544l-.653.062c-.566.067-.735.654-.735 2.812v2.154c0 2.787-1.288 4.246-4.057 4.246-1.393 0-2.435-.282-3.091-.912-.654-.65-.936-1.653-.936-3.075v-3.481" sketch:type="MSShapeGroup"/><path d="M70.286 4.649c0-2.182-.13-2.722-.934-2.812l-.697-.062c-.151-.133-.134-.438.042-.544.807.038 1.305.062 1.943.062.628 0 1.111-.024 1.803-.062.17.106.17.431.021.544l-.649.062c-.57.067-.742.654-.742 2.812v3.655c0 .438 0 2.2.065 2.53-.065.13-.266.242-.458.193-.241-.304-.678-.757-2.025-2.218l-3.311-3.529c-.828-.87-1.394-1.437-1.678-1.68-.086 0-.086.243-.086.916v2.876c0 2.184.131 2.745.936 2.809l.693.069c.177.128.135.433-.038.545-.812-.048-1.312-.069-1.936-.069-.639 0-1.048.021-1.814.069-.175-.092-.175-.437-.022-.545l.655-.069c.563-.064.742-.654.742-2.809v-3.898c0-.72-.023-1.027-.46-1.35-.172-.135-.589-.268-.807-.307l-.325-.062c-.15-.133-.15-.46.042-.544.828.062 1.416.062 1.877.062.305 0 .605-.024.874-.062.43.829 1.241 1.764 2.126 2.676l2.054 2.109c.478.483 1.741 1.862 1.979 2.031.13-.047.13-.354.13-.872v-2.526" sketch:type="MSShapeGroup"/><path d="M79.654 3.581c0-1.499-.088-1.588-1.022-1.744l-.416-.062c-.15-.113-.132-.482.047-.544.848.038 1.526.062 2.215.062.701 0 1.377-.024 2.225-.062.174.062.197.431.045.544l-.414.062c-.94.156-1.028.245-1.028 1.744v4.877c0 1.506.088 1.586 1.028 1.743l.414.069c.152.108.129.476-.045.545-.827-.048-1.551-.069-2.225-.069-.689 0-1.367.021-2.215.069-.179-.069-.197-.437-.047-.545l.416-.069c.934-.157 1.022-.237 1.022-1.743v-4.877" sketch:type="MSShapeGroup"/><path d="M89.691 3.627c-.654-1.442-.736-1.545-1.26-1.68l-.717-.172c-.133-.133-.156-.438.018-.544.568.038 1.287.062 1.959.062.791 0 1.422-.024 2.115-.062.18.084.199.431 0 .544l-.457.062c-.562.09-.562.371-.086 1.44l1.068 2.413c.546 1.244.911 2.055 1.239 2.768.439-.914.808-1.828 1.22-2.739.459-1.003 1.069-2.514 1.286-3.145.158-.457.129-.606-.522-.737l-.349-.062c-.2-.133-.125-.417.044-.544.635.038 1.196.062 1.786.062.695 0 1.201-.024 1.549-.062.21.084.259.431.105.544l-.609.129c-.653.134-.786.329-1.481 1.804l-1.654 3.559c-.652 1.391-1.289 2.977-1.549 3.697-.066.063-.154.085-.266.085-.082 0-.171-.022-.253-.085-.2-.566-.44-1.265-.723-1.875l-2.463-5.462" sketch:type="MSShapeGroup"/><path d="M104.794 3.581c0-1.499-.089-1.572-.918-1.744l-.304-.062c-.156-.089-.125-.46.043-.544.33.02.658.038.984.038.348.024.693.024 1.041.024h3.096c.961 0 1.824-.024 2.025-.062.024.263.133 1.282.239 2.222-.088.174-.44.193-.567.041-.127-.564-.262-.848-.392-1.048-.344-.519-1.327-.519-1.846-.519h-.963c-.764 0-.787.02-.787.69v2.423c0 .395 0 .438.414.438h1.025c1.157 0 1.26-.176 1.438-.829l.113-.41c.106-.163.432-.134.545.036-.045.632-.045 1.027-.045 1.529 0 .544 0 .935.045 1.565-.113.175-.439.199-.545.049l-.113-.417c-.178-.653-.281-.824-1.438-.824h-1.025c-.414 0-.414.065-.414.497v1.569c0 .654.045 1.333.244 1.562.195.225.59.309 1.826.309 1.397 0 2.203-.07 2.832-1.81.153-.148.5-.106.567.089-.108.915-.414 2.005-.655 2.422-.67-.026-1.301-.048-1.91-.048-.613-.021-1.201-.021-1.789-.021h-1.92c-.693 0-1.367.021-2.42.069-.17-.069-.191-.437-.037-.545l.59-.069c.932-.107 1.021-.237 1.021-1.743v-4.877" sketch:type="MSShapeGroup"/><path d="M118.8 8.458c0 1.506-.084 1.545-1.027 1.743l-.322.069c-.201.087-.18.476.037.545.767-.048 1.439-.069 2.135-.069.679 0 1.398.021 2.314.069.172-.069.193-.437.039-.545l-.5-.069c-.939-.136-1.027-.237-1.027-1.743v-1.546c0-.306.049-.344.615-.344.346 0 .695.084.873.344.453.697 1.041 1.652 1.588 2.351.959 1.22 1.742 1.632 3.047 1.632.42 0 .717-.039.916-.106.092-.066.092-.258 0-.348-.35-.016-.756-.134-1.153-.455-.72-.588-1.681-1.654-2.769-3.487-.066-.107-.086-.243 0-.322.851-.308 1.937-.939 1.937-2.334 0-2.287-2.195-2.612-4.226-2.612-1.194 0-2.412.038-3.61.127-.216.071-.179.518 0 .546l.61.089c.496.067.523.433.523 1.85v4.615zm1.649-5.991c0-.563.156-.607.961-.607 1.525 0 2.291.957 2.291 2.047 0 1.501-.744 2.075-2.155 2.075-1.072 0-1.097 0-1.097-.547v-2.968z" sketch:type="MSShapeGroup"/><path d="M134.634 6.3c-1.045-.545-1.943-1.393-1.943-2.613 0-1.586 1.223-2.697 3.426-2.697.758 0 1.283.199 2.023.325.18.371.33 1.198.309 2.138-.067.174-.465.193-.567.041-.177-.764-.744-1.868-2.023-1.868-1.289 0-1.776.731-1.776 1.475 0 .783.596 1.266 1.467 1.724l1.352.689c.789.403 1.758 1.317 1.758 2.775 0 1.697-1.389 2.76-3.547 2.76-1.332 0-2.203-.456-2.51-.671-.191-.313-.451-1.091-.451-2.246.086-.218.412-.238.566-.043.168.786 1.125 2.336 2.594 2.336 1.109 0 1.826-.574 1.826-1.574 0-.695-.283-1.41-1.519-2.048l-.985-.503" sketch:type="MSShapeGroup"/><g sketch:type="MSShapeGroup"><path d="M146.031 3.581c0-1.499-.09-1.588-1.028-1.744l-.41-.062c-.156-.113-.131-.482.039-.544.854.038 1.526.062 2.223.062.695 0 1.369-.024 2.227-.062.169.062.191.431.035.544l-.41.062c-.936.156-1.026.245-1.026 1.744v4.877c0 1.506.09 1.586 1.026 1.743l.41.069c.156.108.134.476-.035.545-.832-.048-1.549-.069-2.227-.069-.697 0-1.369.021-2.223.069-.17-.069-.195-.437-.039-.545l.41-.069c.938-.157 1.028-.237 1.028-1.743v-4.877"/><path d="M158.531 2.491c0-.564-.028-.564-.459-.564h-.68c-1.324 0-1.889.133-2.418 1.627-.215.133-.455.073-.541-.101.238-.94.483-2.024.588-2.578.088-.083.311-.083.395 0 .023.44.328.418 1.199.418h6.054c.803 0 .961-.024 1.133-.418.151-.083.324-.042.393.069-.176.564-.26 1.723-.221 2.55-.084.173-.457.193-.543.025-.15-1.418-.723-1.592-2.025-1.592h-.742c-.418 0-.483 0-.483.564v5.967c0 1.506.092 1.636 1.029 1.743l.588.069c.149.108.131.476-.045.545-.9-.048-1.72-.069-2.396-.069-.699 0-1.481.021-2.395.069-.179-.069-.199-.437-.045-.545l.588-.069c.936-.107 1.026-.237 1.026-1.743v-5.967"/></g><path d="M172.882 7.849c0-.674-.064-.848-.611-1.855l-1.586-2.938c-.461-.871-.678-1.063-1.242-1.18l-.567-.101c-.156-.133-.109-.482.061-.544.725.038 1.221.062 2.006.062.656 0 1.156-.024 1.855-.062.17.084.239.431.02.544l-.303.062c-.482.11-.553.245-.199.914l.809 1.546c.324.656.648 1.246.976 1.806.348-.589.674-1.105 1.047-1.806l.871-1.591c.328-.605.365-.802-.15-.869l-.457-.062c-.202-.113-.18-.46.043-.544.656.038 1.152.062 1.652.062.484 0 .937-.024 1.545-.062.176.062.219.431.051.544l-.524.101c-.678.133-.791.268-1.465 1.358l-1.349 2.174c-.782 1.244-.824 1.459-.824 2.095v1.174c0 1.287.084 1.417 1.019 1.524l.551.069c.148.108.125.476-.051.545-.953-.048-1.676-.069-2.348-.069-.701 0-1.375.021-2.349.069-.178-.069-.201-.437-.053-.545l.553-.069c.935-.107 1.019-.237 1.019-1.524v-.828" sketch:type="MSShapeGroup"/><path d="M191.685.919c-3.158 0-5.379 2.223-5.379 5.122 0 2.745 2.004 4.939 5.379 4.939 3.066 0 5.295-2.137 5.295-5.075 0-2.656-1.789-4.986-5.295-4.986zm-.154.634c2.398 0 3.51 2.354 3.51 4.682 0 2.981-1.596 4.122-3.249 4.122-2.529 0-3.55-2.42-3.55-4.667 0-3.073 1.718-4.137 3.289-4.137z" sketch:type="MSShapeGroup"/><path d="M202.486 3.576c0-1.504-.106-1.545-.916-1.741l-.258-.064c-.152-.114-.135-.482.043-.547.299.022.609.045.936.045.328.02.677.02 1.023.02h3.027c.961 0 1.789-.02 2.092-.065.022.262.043 1.283.115 2.227-.093.216-.439.236-.58.039-.123-.567-.258-.849-.385-1.047-.373-.544-1.33-.516-1.853-.516h-.848c-.675 0-.736 0-.736.756v2.52c0 .403 0 .439.41.439h1.174c1.156 0 1.268-.177 1.437-.822l.114-.415c.107-.154.429-.13.539.042-.035.633-.035 1.018-.035 1.525 0 .547 0 .94.035 1.568-.11.172-.432.198-.539.043l-.114-.412c-.169-.652-.281-.828-1.437-.828h-1.174c-.41 0-.41.064-.41.499v1.616c0 1.503.082 1.651 1.021 1.738l.676.072c.149.104.127.472-.047.544-1.093-.045-1.808-.072-2.482-.072-.695 0-1.371.027-2.221.072-.176-.072-.199-.44-.049-.544l.416-.072c.936-.152 1.026-.235 1.026-1.738v-4.882" sketch:type="MSShapeGroup"/><path d="M7.256 6.691l.405 1.197 1.238-.245-.83.95.83.949-1.237-.244-.406 1.195-.41-1.195-1.238.244.83-.949-.831-.95 1.239.245.41-1.197zm-.786.545l-2.386-.473 1.602 1.83-1.602 1.83 2.386-.471.786 2.301.782-2.301 2.388.471-1.603-1.83 1.603-1.83-2.388.473-.782-2.303-.786 2.303z" sketch:type="MSShapeGroup"/><path d="M8.046 36.674v.002-.002" sketch:type="MSShapeGroup"/><path d="M12.33 23.968c.139-.306.225-.512.311-.661.05-.089.116-.106.187-.123l.076-.017-.005-.086-.295.009-.325-.009-.005.086.088.02c.088.023.099.046.052.17-.162.418-.341.842-.505 1.224l-.165-.386-.219-.546-.146-.407.09-.055.076-.02-.006-.086-.396.009-.367-.009-.009.084.075.014c.123.025.15.068.232.275l.528 1.286.14.4.057.016.051-.016c.052-.153.193-.512.317-.791l.163-.381" sketch:type="MSShapeGroup"/><path d="M13.684 24.667c0 .325.023.334.164.349l.064.013-.002.089-.395-.01-.404.01-.007-.089.066-.013c.143-.015.166-.024.166-.349v-1.136c0-.327-.023-.337-.166-.357l-.066-.007.007-.086.404.009.395-.009.002.086-.064.007c-.141.02-.164.03-.164.357v1.136" sketch:type="MSShapeGroup"/><path d="M14.922 23.345c0-.127 0-.135-.078-.135h-.168c-.274 0-.354.034-.464.283l-.096-.02c.052-.168.096-.356.116-.468l.035-.009.028.009c.014.08.059.085.259.085h1.211c.146 0 .19-.009.227-.085l.035-.009.039.015c-.031.129-.055.388-.045.487l-.09.012c-.039-.239-.096-.3-.413-.3h-.17c-.08 0-.08.008-.08.135v1.322c0 .325.024.334.165.349l.107.013-.007.089-.435-.01-.46.01-.005-.089.123-.015c.139-.013.166-.022.166-.347v-1.322" sketch:type="MSShapeGroup"/><path d="M16.58 24.264c-.074 0-.102-.002-.052-.13l.131-.359.091-.242h.007l.087.242.125.366c.038.107.015.123-.075.123h-.314zm.357.14c.088 0 .113 0 .143.084l.126.37c.04.132.029.151-.081.158l-.065.013.009.089.374-.01.395.01-.003-.089-.046-.013c-.158-.024-.172-.046-.24-.253l-.44-1.282-.14-.418-.05-.025c-.006 0-.109.127-.216.149.008.049-.015.123-.057.219l-.417 1.094-.151.374c-.047.098-.078.127-.171.14l-.091.015.004.089.303-.01.326.01.008-.089-.091-.015c-.116-.014-.127-.024-.064-.205l.108-.321c.029-.084.04-.084.118-.084h.409z" sketch:type="MSShapeGroup"/><path d="M11.592 28.083c0 .325-.026.334-.154.351l-.062.01.005.087.352-.008.177.008.225.011c.253 0 .494-.039.686-.148.347-.193.501-.543.501-.878 0-.46-.237-.783-.57-.917-.201-.081-.393-.103-.656-.103-.271 0-.494.007-.692.027l-.006.084.059.005c.131.019.135.055.135.35v1.121zm.32-1.194l.024-.231c.019-.014.109-.039.224-.039.463 0 .783.292.783.897 0 .518-.222.906-.714.906-.293 0-.317-.164-.317-.458v-1.075z" sketch:type="MSShapeGroup"/><path d="M13.725 26.943c0-.321-.03-.334-.168-.354l-.051-.01.006-.083.384.007.397-.007.006.083-.067.01c-.137.02-.164.033-.164.354v.703c0 .417.124.776.535.776.39 0 .551-.301.551-.766v-.386c0-.228-.003-.513-.058-.603-.026-.045-.073-.065-.147-.078l-.058-.006.005-.087.329.007.315-.007.006.087-.067.012-.128.072c-.04.092-.04.365-.04.603v.367c0 .278-.044.537-.199.706-.155.17-.378.229-.579.229-.281 0-.476-.061-.614-.196-.136-.132-.194-.344-.194-.657v-.776" sketch:type="MSShapeGroup"/><path d="M16.395 26.943c0-.317.024-.324.166-.348l.063-.01-.007-.089-.396.007-.415-.007-.006.089.082.01c.139.024.166.031.166.348v1.14c0 .319-.027.327-.166.346l-.089.015.007.087.421-.008h.31l.436.003.277.005c.036-.082.104-.314.125-.444l-.092-.014c-.136.313-.184.329-.513.329-.241 0-.286-.026-.323-.069-.043-.052-.046-.159-.046-.315v-1.075" sketch:type="MSShapeGroup"/><path d="M16.984 27.536l-.005.026h.09l.007-.022c.028-.08.066-.181.189-.181l.21.07.031.016c.242.111.273.127.354.124.131.005.283-.102.314-.339l.004-.025-.093.003-.005.014c-.027.132-.087.194-.187.194-.056-.003-.076-.008-.282-.107-.195-.089-.258-.108-.326-.108 0 0-.248-.018-.301.335" sketch:type="MSShapeGroup"/><path d="M29.271 30.873s-1.235.787-4.663.345c-3.426-.442-4.633.387-4.633.387v-10.936s.995-.826 4.422-.385c3.424.442 4.874-.132 4.874-.132v10.721zm-10.138.722s-1.21-.827-4.635-.387c-3.427.443-4.661-.348-4.661-.348v-10.716s1.445.574 4.873.133c3.428-.444 4.423.383 4.423.383v10.935zm10.971-10.969v-1.609s-2.103.928-5.707.416c-3.421-.49-4.846.449-4.846.449s-1.427-.939-4.85-.449c-3.602.512-5.709-.416-5.709-.416v1.609h-.957v12.196h9.951s.48.61 1.565.61c1.082 0 1.558-.61 1.558-.61h9.957v-12.196h-.962z" sketch:type="MSShapeGroup"/><path d="M22.359 23.627l-.082.007c-.048-.18-.163-.426-.513-.426-.333 0-.671.263-.671.856 0 .619.35.923.69.923.332 0 .478-.245.551-.433l.078.014c-.016.193-.09.384-.127.441l-.09.022c-.058.023-.242.072-.412.072-.258 0-.486-.059-.676-.193-.213-.154-.375-.42-.375-.803 0-.337.139-.602.335-.77.195-.16.462-.245.726-.245.15 0 .335.03.456.066l.073.013.037.456" sketch:type="MSShapeGroup"/><path d="M22.877 23.531c0-.327-.024-.337-.169-.36l-.048-.004.011-.086.184.004.198.005h.517l.405-.009.048.421-.093.013c-.049-.178-.094-.252-.187-.279l-.239-.026h-.156c-.127 0-.127.008-.127.182v.554c0 .079.005.082.07.082h.098c.259 0 .31-.003.332-.137l.022-.104.093.003-.01.307.01.319-.093.007-.022-.123c-.022-.127-.073-.136-.332-.136h-.098c-.065 0-.07.009-.07.084v.351c0 .157.006.268.05.318.038.045.042.07.292.07.378.005.4-.087.502-.332l.097.018c-.017.131-.085.361-.127.445l-.242-.005-.404-.005h-.336l-.446.01-.005-.089.106-.013c.145-.015.169-.024.169-.351v-1.134" sketch:type="MSShapeGroup"/><path d="M24.613 24.665c0 .327-.023.336-.158.351l-.06.013.005.089.358-.01.179.01.178.009c.256 0 .451-.039.65-.145.351-.197.506-.547.506-.885 0-.453-.238-.782-.578-.916-.203-.079-.351-.1-.617-.1-.278 0-.451.009-.654.024l-.003.086.06.01c.134.017.134.05.134.344v1.12zm.326-1.194c0-.144.004-.208.026-.227l.128-.04c.472 0 .798.292.798.895 0 .52-.231.905-.73.905-.298 0-.222-.161-.222-.458v-1.075z" sketch:type="MSShapeGroup"/><path d="M27.537 23.038c-.582 0-.992.462-.992 1.087 0 .546.361 1.031.988 1.031.561 0 .978-.448.978-1.054 0-.557-.332-1.064-.974-1.064zm-.037.122c.443 0 .63.538.63.996 0 .619-.253.878-.571.878-.474 0-.636-.577-.636-.999 0-.651.303-.875.577-.875z" sketch:type="MSShapeGroup"/><path d="M21.488 28.444c-.052-.065-.092-.275-.09-.47l.09-.008c.057.157.219.483.507.483.226 0 .353-.141.353-.326 0-.176-.079-.315-.302-.446l-.128-.074c-.225-.128-.419-.313-.419-.588 0-.302.223-.559.655-.559.155 0 .266.034.408.062.03.069.063.27.063.412l-.097.01c-.043-.157-.147-.363-.4-.363-.24 0-.339.158-.339.322 0 .126.086.267.285.371l.185.104c.191.101.406.292.406.6 0 .35-.26.598-.689.598-.273 0-.427-.091-.488-.128" sketch:type="MSShapeGroup"/><path d="M23.234 26.962c0-.278-.004-.324-.13-.34l-.103-.015.005-.084c.206-.024.386-.027.656-.027.278 0 .487.039.621.123.154.094.25.256.25.458 0 .465-.429.59-.664.59l-.074-.001-.012-.078c.273-.052.371-.255.371-.504 0-.251-.151-.465-.425-.465-.149 0-.149.007-.149.126v1.338c0 .322.023.334.164.349l.11.012-.006.087-.44-.008-.386.008-.001-.087.047-.007c.139-.02.166-.032.166-.354v-1.121" sketch:type="MSShapeGroup"/><path d="M24.986 28.083c0 .322-.026.334-.166.349l-.109.012.008.087.442-.008h.339l.449.003.246.005c.047-.082.109-.314.127-.444l-.096-.014c-.101.248-.132.332-.51.326-.247 0-.301-.023-.333-.066-.045-.052-.053-.159-.053-.318v-.34c0-.08.006-.084.07-.084h.143c.26 0 .311.004.332.135l.018.122.096-.002-.008-.325.008-.301-.096-.006-.018.102c-.021.137-.072.137-.332.137h-.143c-.064 0-.07 0-.07-.079v-.567c0-.176 0-.181.127-.181h.201l.235.025c.096.024.141.101.189.279l.094-.011-.048-.423-.401.007h-.566l-.196-.003-.185-.004-.009.089.049.004c.14.02.166.033.166.354v1.14" sketch:type="MSShapeGroup"/><path d="M26.701 28.444c-.055-.065-.094-.275-.087-.47l.089-.008c.058.157.215.483.507.483.222 0 .352-.141.352-.326 0-.176-.082-.315-.301-.446l-.129-.074c-.223-.128-.421-.313-.421-.588 0-.302.222-.559.654-.559.154 0 .271.034.407.062.034.069.063.27.063.412l-.095.01c-.043-.157-.149-.363-.401-.363-.239 0-.338.158-.338.322 0 .126.089.267.286.371l.186.104c.189.101.404.292.404.6 0 .35-.258.598-.69.598-.274 0-.426-.091-.486-.128" sketch:type="MSShapeGroup"/><path d="M36.428 19.311c0 7.185-2.214 12.884-5.381 17.368 0 0-.613-.234-1.569-.234-2.033 0-2.64 1.193-5.066 1.193-1.47 0-2.095-.65-3.301-.988v-2.924s-.359.51-1.557.51c-1.205 0-1.561-.512-1.561-.512v2.918c-1.204.341-1.829.991-3.3.991-2.423 0-3.031-1.193-5.064-1.193-.967 0-1.583.234-1.583.234-3.169-4.481-5.379-10.175-5.379-17.363l-.001-15.376h33.765l-.003 15.376zm-10.1 22.692c-.503.438-.733.577-1.199.676-.234.046-.721.067-.721.067-1.988 0-2.43-1.193-4.857-1.193-2.428 0-2.867 1.193-4.858 1.193 0 0-.486-.021-.718-.067-.469-.099-.698-.238-1.204-.676-.981-.85-1.831-1.74-2.722-2.769 1.822.002 2.279 1.104 4.644 1.104 1.991 0 2.43-1.193 4.858-1.193 2.427 0 2.869 1.193 4.857 1.193 2.367 0 2.814-1.102 4.645-1.104-.893 1.029-1.743 1.919-2.725 2.769zm-6.779 4.88c-.969-.549-1.903-1.131-2.903-1.82.78-.346 1.461-.87 2.905-.87 1.433 0 2.124.524 2.902.87-.996.687-1.941 1.273-2.904 1.82zm0-45.614h-19.549l.003 17.769c0 16.944 10.764 26.013 19.546 30.962 8.78-4.949 19.545-14.018 19.545-30.962l.002-17.769h-19.547z" sketch:type="MSShapeGroup"/><path d="M21.103 15.889h6.729l2.27 1.313v-5.36l-2.27 1.314h-6.729l.004.005v-5.207l1.321-2.284h-5.756l1.319 2.284v5.202h-6.729l-2.27-1.314v5.36l2.27-1.313h6.729v2.732s.905.101 1.559.467c.651-.366 1.557-.467 1.557-.467v-2.732h-.004" sketch:type="MSShapeGroup"/></g></svg>